<?xml version="1.0" encoding="utf-8" standalone="no"?>
<!DOCTYPE svg PUBLIC "-//W3C//DTD SVG 1.1//EN"
  "http://www.w3.org/Graphics/SVG/1.1/DTD/svg11.dtd">
<svg xmlns:xlink="http://www.w3.org/1999/xlink" width="720pt" height="237.6pt" viewBox="0 0 720 237.6" xmlns="http://www.w3.org/2000/svg" version="1.1">
 <metadata>
  <rdf:RDF xmlns:dc="http://purl.org/dc/elements/1.1/" xmlns:cc="http://creativecommons.org/ns#" xmlns:rdf="http://www.w3.org/1999/02/22-rdf-syntax-ns#">
   <cc:Work>
    <dc:type rdf:resource="http://purl.org/dc/dcmitype/StillImage"/>
    <dc:date>2024-08-03T13:05:10.091871</dc:date>
    <dc:format>image/svg+xml</dc:format>
    <dc:creator>
     <cc:Agent>
      <dc:title>Matplotlib v3.9.0, https://matplotlib.org/</dc:title>
     </cc:Agent>
    </dc:creator>
   </cc:Work>
  </rdf:RDF>
 </metadata>
 <defs>
  <style type="text/css">*{stroke-linejoin: round; stroke-linecap: butt}</style>
 </defs>
 <g id="figure_1">
  <g id="patch_1">
   <path d="M 0 237.6 
L 720 237.6 
L 720 0 
L 0 0 
z
" style="fill: #ffffff"/>
  </g>
  <g id="axes_1">
   <g id="patch_2">
    <path d="M 90 211.464 
L 648 211.464 
L 648 28.512 
L 90 28.512 
z
" style="fill: #ffffff"/>
   </g>
   <g id="PolyCollection_1">
    <path d="M -189 211.464 
L -189 211.464 
L -177.375 211.464 
L -165.75 211.464 
L -154.125 211.464 
L -142.5 211.464 
L -130.875 211.464 
L -119.25 211.464 
L -107.625 211.464 
L -96 211.464 
L -84.375 211.464 
L -72.75 211.464 
L -61.125 211.464 
L -49.5 211.464 
L -37.875 211.464 
L -26.25 211.464 
L -14.625 211.464 
L -3 211.464 
L 8.625 211.464 
L 20.25 211.464 
L 31.875 211.464 
L 43.5 211.464 
L 55.125 211.464 
L 66.75 211.464 
L 78.375 211.464 
L 90 211.464 
L 101.625 211.464 
L 113.25 211.464 
L 124.875 211.464 
L 136.5 211.464 
L 148.125 211.464 
L 159.75 211.464 
L 171.375 211.464 
L 183 211.464 
L 194.625 211.464 
L 206.25 211.464 
L 217.875 211.464 
L 229.5 211.464 
L 241.125 211.464 
L 252.75 211.464 
L 264.375 211.464 
L 276 211.464 
L 287.625 211.464 
L 299.25 211.464 
L 310.875 211.464 
L 322.5 211.464 
L 334.125 211.464 
L 345.75 211.464 
L 357.375 211.464 
L 369 211.464 
L 380.625 211.464 
L 392.25 211.464 
L 403.875 211.464 
L 415.5 211.464 
L 427.125 211.464 
L 438.75 211.464 
L 450.375 211.464 
L 462 211.464 
L 473.625 211.464 
L 485.25 211.464 
L 496.875 211.464 
L 508.5 211.464 
L 520.125 211.464 
L 531.75 211.464 
L 543.375 211.464 
L 555 211.464 
L 566.625 211.464 
L 578.25 211.464 
L 589.875 211.464 
L 601.5 211.464 
L 613.125 211.464 
L 624.75 211.464 
L 636.375 211.464 
L 648 211.464 
L 659.625 211.464 
L 659.625 187.61248 
L 659.625 187.61248 
L 648 187.61248 
L 636.375 187.68024 
L 624.75 187.95128 
L 613.125 188.29008 
L 601.5 188.49336 
L 589.875 189.1032 
L 578.25 191.40704 
L 566.625 193.57536 
L 555 193.64312 
L 543.375 194.79504 
L 531.75 194.93056 
L 520.125 195.60816 
L 508.5 196.62456 
L 496.875 196.76008 
L 485.25 197.50544 
L 473.625 199.606 
L 462 200.2836 
L 450.375 200.82568 
L 438.75 201.16448 
L 427.125 201.90984 
L 415.5 202.85848 
L 403.875 203.12952 
L 392.25 203.26504 
L 380.625 203.60384 
L 369 204.21368 
L 357.375 204.82352 
L 345.75 204.95904 
L 334.125 205.16232 
L 322.5 205.43336 
L 310.875 206.24648 
L 299.25 207.12736 
L 287.625 207.46616 
L 276 208.00824 
L 264.375 208.00824 
L 252.75 208.00824 
L 241.125 208.27928 
L 229.5 208.27928 
L 217.875 208.27928 
L 206.25 208.27928 
L 194.625 208.27928 
L 183 208.27928 
L 171.375 208.4148 
L 159.75 208.4148 
L 148.125 208.48256 
L 136.5 208.7536 
L 124.875 208.7536 
L 113.25 208.82136 
L 101.625 208.82136 
L 90 208.82136 
L 78.375 208.82136 
L 66.75 208.95688 
L 55.125 211.464 
L 43.5 211.464 
L 31.875 211.464 
L 20.25 211.464 
L 8.625 211.464 
L -3 211.464 
L -14.625 211.464 
L -26.25 211.464 
L -37.875 211.464 
L -49.5 211.464 
L -61.125 211.464 
L -72.75 211.464 
L -84.375 211.464 
L -96 211.464 
L -107.625 211.464 
L -119.25 211.464 
L -130.875 211.464 
L -142.5 211.464 
L -154.125 211.464 
L -165.75 211.464 
L -177.375 211.464 
L -189 211.464 
z
" clip-path="url(#p919031e288)" style="fill: #2d76d6; stroke: #2d76d6"/>
   </g>
   <g id="PolyCollection_2">
    <path d="M -189 211.32848 
L -189 211.464 
L -177.375 211.464 
L -165.75 211.464 
L -154.125 211.464 
L -142.5 211.464 
L -130.875 211.464 
L -119.25 211.464 
L -107.625 211.464 
L -96 211.464 
L -84.375 211.464 
L -72.75 211.464 
L -61.125 211.464 
L -49.5 211.464 
L -37.875 211.464 
L -26.25 211.464 
L -14.625 211.464 
L -3 211.464 
L 8.625 211.464 
L 20.25 211.464 
L 31.875 211.464 
L 43.5 211.464 
L 55.125 211.464 
L 66.75 208.95688 
L 78.375 208.82136 
L 90 208.82136 
L 101.625 208.82136 
L 113.25 208.82136 
L 124.875 208.7536 
L 136.5 208.7536 
L 148.125 208.48256 
L 159.75 208.4148 
L 171.375 208.4148 
L 183 208.27928 
L 194.625 208.27928 
L 206.25 208.27928 
L 217.875 208.27928 
L 229.5 208.27928 
L 241.125 208.27928 
L 252.75 208.00824 
L 264.375 208.00824 
L 276 208.00824 
L 287.625 207.46616 
L 299.25 207.12736 
L 310.875 206.24648 
L 322.5 205.43336 
L 334.125 205.16232 
L 345.75 204.95904 
L 357.375 204.82352 
L 369 204.21368 
L 380.625 203.60384 
L 392.25 203.26504 
L 403.875 203.12952 
L 415.5 202.85848 
L 427.125 201.90984 
L 438.75 201.16448 
L 450.375 200.82568 
L 462 200.2836 
L 473.625 199.606 
L 485.25 197.50544 
L 496.875 196.76008 
L 508.5 196.62456 
L 520.125 195.60816 
L 531.75 194.93056 
L 543.375 194.79504 
L 555 193.64312 
L 566.625 193.57536 
L 578.25 191.40704 
L 589.875 189.1032 
L 601.5 188.49336 
L 613.125 188.29008 
L 624.75 187.95128 
L 636.375 187.68024 
L 648 187.61248 
L 659.625 187.61248 
L 659.625 39.48912 
L 659.625 39.48912 
L 648 39.6924 
L 636.375 42.80936 
L 624.75 46.33288 
L 613.125 52.43128 
L 601.5 56.49688 
L 589.875 76.6216 
L 578.25 82.85552 
L 566.625 87.73424 
L 555 94.03592 
L 543.375 97.89824 
L 531.75 100.3376 
L 520.125 106.70704 
L 508.5 117.54864 
L 496.875 121.95304 
L 485.25 130.42304 
L 473.625 136.5892 
L 462 141.3324 
L 450.375 144.44936 
L 438.75 148.85376 
L 427.125 152.24176 
L 415.5 153.66472 
L 403.875 156.2396 
L 392.25 157.79808 
L 380.625 160.44072 
L 369 163.0156 
L 357.375 164.50632 
L 345.75 165.99704 
L 334.125 167.62328 
L 322.5 168.97848 
L 310.875 172.56976 
L 299.25 174.39928 
L 287.625 176.16104 
L 276 177.17744 
L 264.375 178.53264 
L 252.75 179.34576 
L 241.125 181.3108 
L 229.5 181.85288 
L 217.875 184.08896 
L 206.25 184.90208 
L 194.625 185.57968 
L 183 186.52832 
L 171.375 187.34144 
L 159.75 188.49336 
L 148.125 190.86496 
L 136.5 192.4912 
L 124.875 192.96552 
L 113.25 193.5076 
L 101.625 194.04968 
L 90 195.06608 
L 78.375 196.218 
L 66.75 197.64096 
L 55.125 200.2836 
L 43.5 200.41912 
L 31.875 200.75792 
L 20.25 201.3 
L 8.625 201.84208 
L -3 201.9776 
L -14.625 202.04536 
L -26.25 202.6552 
L -37.875 202.92624 
L -49.5 204.82352 
L -61.125 205.0268 
L -72.75 206.99184 
L -84.375 207.3984 
L -96 207.7372 
L -107.625 208.14376 
L -119.25 208.68584 
L -130.875 209.70224 
L -142.5 210.31208 
L -154.125 210.85416 
L -165.75 211.19296 
L -177.375 211.26072 
L -189 211.32848 
z
" clip-path="url(#p919031e288)" style="fill: #f2b263; stroke: #f2b263"/>
   </g>
   <g id="matplotlib.axis_1">
    <g id="xtick_1">
     <g id="line2d_1">
      <defs>
       <path id="m7199a4d12b" d="M 0 0 
L 0 3.5 
" style="stroke: #000000; stroke-width: 0.8"/>
      </defs>
      <g>
       <use xlink:href="#m7199a4d12b" x="159.75" y="211.464" style="stroke: #000000; stroke-width: 0.8"/>
      </g>
     </g>
     <g id="text_1">
      <!-- 2021 -->
      <g transform="translate(147.025 226.062437) scale(0.1 -0.1)">
       <defs>
        <path id="DejaVuSans-32" d="M 1228 531 
L 3431 531 
L 3431 0 
L 469 0 
L 469 531 
Q 828 903 1448 1529 
Q 2069 2156 2228 2338 
Q 2531 2678 2651 2914 
Q 2772 3150 2772 3378 
Q 2772 3750 2511 3984 
Q 2250 4219 1831 4219 
Q 1534 4219 1204 4116 
Q 875 4013 500 3803 
L 500 4441 
Q 881 4594 1212 4672 
Q 1544 4750 1819 4750 
Q 2544 4750 2975 4387 
Q 3406 4025 3406 3419 
Q 3406 3131 3298 2873 
Q 3191 2616 2906 2266 
Q 2828 2175 2409 1742 
Q 1991 1309 1228 531 
z
" transform="scale(0.015625)"/>
        <path id="DejaVuSans-30" d="M 2034 4250 
Q 1547 4250 1301 3770 
Q 1056 3291 1056 2328 
Q 1056 1369 1301 889 
Q 1547 409 2034 409 
Q 2525 409 2770 889 
Q 3016 1369 3016 2328 
Q 3016 3291 2770 3770 
Q 2525 4250 2034 4250 
z
M 2034 4750 
Q 2819 4750 3233 4129 
Q 3647 3509 3647 2328 
Q 3647 1150 3233 529 
Q 2819 -91 2034 -91 
Q 1250 -91 836 529 
Q 422 1150 422 2328 
Q 422 3509 836 4129 
Q 1250 4750 2034 4750 
z
" transform="scale(0.015625)"/>
        <path id="DejaVuSans-31" d="M 794 531 
L 1825 531 
L 1825 4091 
L 703 3866 
L 703 4441 
L 1819 4666 
L 2450 4666 
L 2450 531 
L 3481 531 
L 3481 0 
L 794 0 
L 794 531 
z
" transform="scale(0.015625)"/>
       </defs>
       <use xlink:href="#DejaVuSans-32"/>
       <use xlink:href="#DejaVuSans-30" x="63.623047"/>
       <use xlink:href="#DejaVuSans-32" x="127.246094"/>
       <use xlink:href="#DejaVuSans-31" x="190.869141"/>
      </g>
     </g>
    </g>
    <g id="xtick_2">
     <g id="line2d_2">
      <g>
       <use xlink:href="#m7199a4d12b" x="299.25" y="211.464" style="stroke: #000000; stroke-width: 0.8"/>
      </g>
     </g>
     <g id="text_2">
      <!-- 2022 -->
      <g transform="translate(286.525 226.062437) scale(0.1 -0.1)">
       <use xlink:href="#DejaVuSans-32"/>
       <use xlink:href="#DejaVuSans-30" x="63.623047"/>
       <use xlink:href="#DejaVuSans-32" x="127.246094"/>
       <use xlink:href="#DejaVuSans-32" x="190.869141"/>
      </g>
     </g>
    </g>
    <g id="xtick_3">
     <g id="line2d_3">
      <g>
       <use xlink:href="#m7199a4d12b" x="438.75" y="211.464" style="stroke: #000000; stroke-width: 0.8"/>
      </g>
     </g>
     <g id="text_3">
      <!-- 2023 -->
      <g transform="translate(426.025 226.062437) scale(0.1 -0.1)">
       <defs>
        <path id="DejaVuSans-33" d="M 2597 2516 
Q 3050 2419 3304 2112 
Q 3559 1806 3559 1356 
Q 3559 666 3084 287 
Q 2609 -91 1734 -91 
Q 1441 -91 1130 -33 
Q 819 25 488 141 
L 488 750 
Q 750 597 1062 519 
Q 1375 441 1716 441 
Q 2309 441 2620 675 
Q 2931 909 2931 1356 
Q 2931 1769 2642 2001 
Q 2353 2234 1838 2234 
L 1294 2234 
L 1294 2753 
L 1863 2753 
Q 2328 2753 2575 2939 
Q 2822 3125 2822 3475 
Q 2822 3834 2567 4026 
Q 2313 4219 1838 4219 
Q 1578 4219 1281 4162 
Q 984 4106 628 3988 
L 628 4550 
Q 988 4650 1302 4700 
Q 1616 4750 1894 4750 
Q 2613 4750 3031 4423 
Q 3450 4097 3450 3541 
Q 3450 3153 3228 2886 
Q 3006 2619 2597 2516 
z
" transform="scale(0.015625)"/>
       </defs>
       <use xlink:href="#DejaVuSans-32"/>
       <use xlink:href="#DejaVuSans-30" x="63.623047"/>
       <use xlink:href="#DejaVuSans-32" x="127.246094"/>
       <use xlink:href="#DejaVuSans-33" x="190.869141"/>
      </g>
     </g>
    </g>
    <g id="xtick_4">
     <g id="line2d_4">
      <g>
       <use xlink:href="#m7199a4d12b" x="578.25" y="211.464" style="stroke: #000000; stroke-width: 0.8"/>
      </g>
     </g>
     <g id="text_4">
      <!-- 2024 -->
      <g transform="translate(565.525 226.062437) scale(0.1 -0.1)">
       <defs>
        <path id="DejaVuSans-34" d="M 2419 4116 
L 825 1625 
L 2419 1625 
L 2419 4116 
z
M 2253 4666 
L 3047 4666 
L 3047 1625 
L 3713 1625 
L 3713 1100 
L 3047 1100 
L 3047 0 
L 2419 0 
L 2419 1100 
L 313 1100 
L 313 1709 
L 2253 4666 
z
" transform="scale(0.015625)"/>
       </defs>
       <use xlink:href="#DejaVuSans-32"/>
       <use xlink:href="#DejaVuSans-30" x="63.623047"/>
       <use xlink:href="#DejaVuSans-32" x="127.246094"/>
       <use xlink:href="#DejaVuSans-34" x="190.869141"/>
      </g>
     </g>
    </g>
    <g id="xtick_5">
     <g id="line2d_5">
      <defs>
       <path id="m612f561c1b" d="M 0 0 
L 0 2 
" style="stroke: #000000; stroke-width: 0.6"/>
      </defs>
      <g>
       <use xlink:href="#m612f561c1b" x="90" y="211.464" style="stroke: #000000; stroke-width: 0.6"/>
      </g>
     </g>
    </g>
    <g id="xtick_6">
     <g id="line2d_6">
      <g>
       <use xlink:href="#m612f561c1b" x="124.875" y="211.464" style="stroke: #000000; stroke-width: 0.6"/>
      </g>
     </g>
    </g>
    <g id="xtick_7">
     <g id="line2d_7">
      <g>
       <use xlink:href="#m612f561c1b" x="194.625" y="211.464" style="stroke: #000000; stroke-width: 0.6"/>
      </g>
     </g>
    </g>
    <g id="xtick_8">
     <g id="line2d_8">
      <g>
       <use xlink:href="#m612f561c1b" x="229.5" y="211.464" style="stroke: #000000; stroke-width: 0.6"/>
      </g>
     </g>
    </g>
    <g id="xtick_9">
     <g id="line2d_9">
      <g>
       <use xlink:href="#m612f561c1b" x="264.375" y="211.464" style="stroke: #000000; stroke-width: 0.6"/>
      </g>
     </g>
    </g>
    <g id="xtick_10">
     <g id="line2d_10">
      <g>
       <use xlink:href="#m612f561c1b" x="334.125" y="211.464" style="stroke: #000000; stroke-width: 0.6"/>
      </g>
     </g>
    </g>
    <g id="xtick_11">
     <g id="line2d_11">
      <g>
       <use xlink:href="#m612f561c1b" x="369" y="211.464" style="stroke: #000000; stroke-width: 0.6"/>
      </g>
     </g>
    </g>
    <g id="xtick_12">
     <g id="line2d_12">
      <g>
       <use xlink:href="#m612f561c1b" x="403.875" y="211.464" style="stroke: #000000; stroke-width: 0.6"/>
      </g>
     </g>
    </g>
    <g id="xtick_13">
     <g id="line2d_13">
      <g>
       <use xlink:href="#m612f561c1b" x="473.625" y="211.464" style="stroke: #000000; stroke-width: 0.6"/>
      </g>
     </g>
    </g>
    <g id="xtick_14">
     <g id="line2d_14">
      <g>
       <use xlink:href="#m612f561c1b" x="508.5" y="211.464" style="stroke: #000000; stroke-width: 0.6"/>
      </g>
     </g>
    </g>
    <g id="xtick_15">
     <g id="line2d_15">
      <g>
       <use xlink:href="#m612f561c1b" x="543.375" y="211.464" style="stroke: #000000; stroke-width: 0.6"/>
      </g>
     </g>
    </g>
    <g id="xtick_16">
     <g id="line2d_16">
      <g>
       <use xlink:href="#m612f561c1b" x="613.125" y="211.464" style="stroke: #000000; stroke-width: 0.6"/>
      </g>
     </g>
    </g>
    <g id="xtick_17">
     <g id="line2d_17">
      <g>
       <use xlink:href="#m612f561c1b" x="648" y="211.464" style="stroke: #000000; stroke-width: 0.6"/>
      </g>
     </g>
    </g>
   </g>
   <g id="matplotlib.axis_2">
    <g id="ytick_1">
     <g id="line2d_18">
      <path d="M 90 211.464 
L 648 211.464 
" clip-path="url(#p919031e288)" style="fill: none; stroke-dasharray: 0.8,1.32; stroke-dashoffset: 0; stroke: #d3d3d3; stroke-width: 0.8"/>
     </g>
     <g id="line2d_19">
      <defs>
       <path id="m6f7e0b0e92" d="M 0 0 
L -3.5 0 
" style="stroke: #000000; stroke-width: 0.8"/>
      </defs>
      <g>
       <use xlink:href="#m6f7e0b0e92" x="90" y="211.464" style="stroke: #000000; stroke-width: 0.8"/>
      </g>
     </g>
     <g id="text_5">
      <!-- 0 -->
      <g transform="translate(76.6375 215.263219) scale(0.1 -0.1)">
       <use xlink:href="#DejaVuSans-30"/>
      </g>
     </g>
    </g>
    <g id="ytick_2">
     <g id="line2d_20">
      <path d="M 90 177.584 
L 648 177.584 
" clip-path="url(#p919031e288)" style="fill: none; stroke-dasharray: 0.8,1.32; stroke-dashoffset: 0; stroke: #d3d3d3; stroke-width: 0.8"/>
     </g>
     <g id="line2d_21">
      <g>
       <use xlink:href="#m6f7e0b0e92" x="90" y="177.584" style="stroke: #000000; stroke-width: 0.8"/>
      </g>
     </g>
     <g id="text_6">
      <!-- 500 -->
      <g transform="translate(63.9125 181.383219) scale(0.1 -0.1)">
       <defs>
        <path id="DejaVuSans-35" d="M 691 4666 
L 3169 4666 
L 3169 4134 
L 1269 4134 
L 1269 2991 
Q 1406 3038 1543 3061 
Q 1681 3084 1819 3084 
Q 2600 3084 3056 2656 
Q 3513 2228 3513 1497 
Q 3513 744 3044 326 
Q 2575 -91 1722 -91 
Q 1428 -91 1123 -41 
Q 819 9 494 109 
L 494 744 
Q 775 591 1075 516 
Q 1375 441 1709 441 
Q 2250 441 2565 725 
Q 2881 1009 2881 1497 
Q 2881 1984 2565 2268 
Q 2250 2553 1709 2553 
Q 1456 2553 1204 2497 
Q 953 2441 691 2322 
L 691 4666 
z
" transform="scale(0.015625)"/>
       </defs>
       <use xlink:href="#DejaVuSans-35"/>
       <use xlink:href="#DejaVuSans-30" x="63.623047"/>
       <use xlink:href="#DejaVuSans-30" x="127.246094"/>
      </g>
     </g>
    </g>
    <g id="ytick_3">
     <g id="line2d_22">
      <path d="M 90 143.704 
L 648 143.704 
" clip-path="url(#p919031e288)" style="fill: none; stroke-dasharray: 0.8,1.32; stroke-dashoffset: 0; stroke: #d3d3d3; stroke-width: 0.8"/>
     </g>
     <g id="line2d_23">
      <g>
       <use xlink:href="#m6f7e0b0e92" x="90" y="143.704" style="stroke: #000000; stroke-width: 0.8"/>
      </g>
     </g>
     <g id="text_7">
      <!-- 1000 -->
      <g transform="translate(57.55 147.503219) scale(0.1 -0.1)">
       <use xlink:href="#DejaVuSans-31"/>
       <use xlink:href="#DejaVuSans-30" x="63.623047"/>
       <use xlink:href="#DejaVuSans-30" x="127.246094"/>
       <use xlink:href="#DejaVuSans-30" x="190.869141"/>
      </g>
     </g>
    </g>
    <g id="ytick_4">
     <g id="line2d_24">
      <path d="M 90 109.824 
L 648 109.824 
" clip-path="url(#p919031e288)" style="fill: none; stroke-dasharray: 0.8,1.32; stroke-dashoffset: 0; stroke: #d3d3d3; stroke-width: 0.8"/>
     </g>
     <g id="line2d_25">
      <g>
       <use xlink:href="#m6f7e0b0e92" x="90" y="109.824" style="stroke: #000000; stroke-width: 0.8"/>
      </g>
     </g>
     <g id="text_8">
      <!-- 1500 -->
      <g transform="translate(57.55 113.623219) scale(0.1 -0.1)">
       <use xlink:href="#DejaVuSans-31"/>
       <use xlink:href="#DejaVuSans-35" x="63.623047"/>
       <use xlink:href="#DejaVuSans-30" x="127.246094"/>
       <use xlink:href="#DejaVuSans-30" x="190.869141"/>
      </g>
     </g>
    </g>
    <g id="ytick_5">
     <g id="line2d_26">
      <path d="M 90 75.944 
L 648 75.944 
" clip-path="url(#p919031e288)" style="fill: none; stroke-dasharray: 0.8,1.32; stroke-dashoffset: 0; stroke: #d3d3d3; stroke-width: 0.8"/>
     </g>
     <g id="line2d_27">
      <g>
       <use xlink:href="#m6f7e0b0e92" x="90" y="75.944" style="stroke: #000000; stroke-width: 0.8"/>
      </g>
     </g>
     <g id="text_9">
      <!-- 2000 -->
      <g transform="translate(57.55 79.743219) scale(0.1 -0.1)">
       <use xlink:href="#DejaVuSans-32"/>
       <use xlink:href="#DejaVuSans-30" x="63.623047"/>
       <use xlink:href="#DejaVuSans-30" x="127.246094"/>
       <use xlink:href="#DejaVuSans-30" x="190.869141"/>
      </g>
     </g>
    </g>
    <g id="ytick_6">
     <g id="line2d_28">
      <path d="M 90 42.064 
L 648 42.064 
" clip-path="url(#p919031e288)" style="fill: none; stroke-dasharray: 0.8,1.32; stroke-dashoffset: 0; stroke: #d3d3d3; stroke-width: 0.8"/>
     </g>
     <g id="line2d_29">
      <g>
       <use xlink:href="#m6f7e0b0e92" x="90" y="42.064" style="stroke: #000000; stroke-width: 0.8"/>
      </g>
     </g>
     <g id="text_10">
      <!-- 2500 -->
      <g transform="translate(57.55 45.863219) scale(0.1 -0.1)">
       <use xlink:href="#DejaVuSans-32"/>
       <use xlink:href="#DejaVuSans-35" x="63.623047"/>
       <use xlink:href="#DejaVuSans-30" x="127.246094"/>
       <use xlink:href="#DejaVuSans-30" x="190.869141"/>
      </g>
     </g>
    </g>
    <g id="ytick_7">
     <g id="line2d_30">
      <path d="M 90 194.524 
L 648 194.524 
" clip-path="url(#p919031e288)" style="fill: none; stroke-dasharray: 0.8,1.32; stroke-dashoffset: 0; stroke: #d3d3d3; stroke-width: 0.8"/>
     </g>
     <g id="line2d_31">
      <defs>
       <path id="m8f668eb724" d="M 0 0 
L -2 0 
" style="stroke: #000000; stroke-width: 0.6"/>
      </defs>
      <g>
       <use xlink:href="#m8f668eb724" x="90" y="194.524" style="stroke: #000000; stroke-width: 0.6"/>
      </g>
     </g>
    </g>
    <g id="ytick_8">
     <g id="line2d_32">
      <path d="M 90 160.644 
L 648 160.644 
" clip-path="url(#p919031e288)" style="fill: none; stroke-dasharray: 0.8,1.32; stroke-dashoffset: 0; stroke: #d3d3d3; stroke-width: 0.8"/>
     </g>
     <g id="line2d_33">
      <g>
       <use xlink:href="#m8f668eb724" x="90" y="160.644" style="stroke: #000000; stroke-width: 0.6"/>
      </g>
     </g>
    </g>
    <g id="ytick_9">
     <g id="line2d_34">
      <path d="M 90 126.764 
L 648 126.764 
" clip-path="url(#p919031e288)" style="fill: none; stroke-dasharray: 0.8,1.32; stroke-dashoffset: 0; stroke: #d3d3d3; stroke-width: 0.8"/>
     </g>
     <g id="line2d_35">
      <g>
       <use xlink:href="#m8f668eb724" x="90" y="126.764" style="stroke: #000000; stroke-width: 0.6"/>
      </g>
     </g>
    </g>
    <g id="ytick_10">
     <g id="line2d_36">
      <path d="M 90 92.884 
L 648 92.884 
" clip-path="url(#p919031e288)" style="fill: none; stroke-dasharray: 0.8,1.32; stroke-dashoffset: 0; stroke: #d3d3d3; stroke-width: 0.8"/>
     </g>
     <g id="line2d_37">
      <g>
       <use xlink:href="#m8f668eb724" x="90" y="92.884" style="stroke: #000000; stroke-width: 0.6"/>
      </g>
     </g>
    </g>
    <g id="ytick_11">
     <g id="line2d_38">
      <path d="M 90 59.004 
L 648 59.004 
" clip-path="url(#p919031e288)" style="fill: none; stroke-dasharray: 0.8,1.32; stroke-dashoffset: 0; stroke: #d3d3d3; stroke-width: 0.8"/>
     </g>
     <g id="line2d_39">
      <g>
       <use xlink:href="#m8f668eb724" x="90" y="59.004" style="stroke: #000000; stroke-width: 0.6"/>
      </g>
     </g>
    </g>
    <g id="text_11">
     <!-- cumulative number of files -->
     <g transform="translate(51.470312 187.103625) rotate(-90) scale(0.1 -0.1)">
      <defs>
       <path id="DejaVuSans-63" d="M 3122 3366 
L 3122 2828 
Q 2878 2963 2633 3030 
Q 2388 3097 2138 3097 
Q 1578 3097 1268 2742 
Q 959 2388 959 1747 
Q 959 1106 1268 751 
Q 1578 397 2138 397 
Q 2388 397 2633 464 
Q 2878 531 3122 666 
L 3122 134 
Q 2881 22 2623 -34 
Q 2366 -91 2075 -91 
Q 1284 -91 818 406 
Q 353 903 353 1747 
Q 353 2603 823 3093 
Q 1294 3584 2113 3584 
Q 2378 3584 2631 3529 
Q 2884 3475 3122 3366 
z
" transform="scale(0.015625)"/>
       <path id="DejaVuSans-75" d="M 544 1381 
L 544 3500 
L 1119 3500 
L 1119 1403 
Q 1119 906 1312 657 
Q 1506 409 1894 409 
Q 2359 409 2629 706 
Q 2900 1003 2900 1516 
L 2900 3500 
L 3475 3500 
L 3475 0 
L 2900 0 
L 2900 538 
Q 2691 219 2414 64 
Q 2138 -91 1772 -91 
Q 1169 -91 856 284 
Q 544 659 544 1381 
z
M 1991 3584 
L 1991 3584 
z
" transform="scale(0.015625)"/>
       <path id="DejaVuSans-6d" d="M 3328 2828 
Q 3544 3216 3844 3400 
Q 4144 3584 4550 3584 
Q 5097 3584 5394 3201 
Q 5691 2819 5691 2113 
L 5691 0 
L 5113 0 
L 5113 2094 
Q 5113 2597 4934 2840 
Q 4756 3084 4391 3084 
Q 3944 3084 3684 2787 
Q 3425 2491 3425 1978 
L 3425 0 
L 2847 0 
L 2847 2094 
Q 2847 2600 2669 2842 
Q 2491 3084 2119 3084 
Q 1678 3084 1418 2786 
Q 1159 2488 1159 1978 
L 1159 0 
L 581 0 
L 581 3500 
L 1159 3500 
L 1159 2956 
Q 1356 3278 1631 3431 
Q 1906 3584 2284 3584 
Q 2666 3584 2933 3390 
Q 3200 3197 3328 2828 
z
" transform="scale(0.015625)"/>
       <path id="DejaVuSans-6c" d="M 603 4863 
L 1178 4863 
L 1178 0 
L 603 0 
L 603 4863 
z
" transform="scale(0.015625)"/>
       <path id="DejaVuSans-61" d="M 2194 1759 
Q 1497 1759 1228 1600 
Q 959 1441 959 1056 
Q 959 750 1161 570 
Q 1363 391 1709 391 
Q 2188 391 2477 730 
Q 2766 1069 2766 1631 
L 2766 1759 
L 2194 1759 
z
M 3341 1997 
L 3341 0 
L 2766 0 
L 2766 531 
Q 2569 213 2275 61 
Q 1981 -91 1556 -91 
Q 1019 -91 701 211 
Q 384 513 384 1019 
Q 384 1609 779 1909 
Q 1175 2209 1959 2209 
L 2766 2209 
L 2766 2266 
Q 2766 2663 2505 2880 
Q 2244 3097 1772 3097 
Q 1472 3097 1187 3025 
Q 903 2953 641 2809 
L 641 3341 
Q 956 3463 1253 3523 
Q 1550 3584 1831 3584 
Q 2591 3584 2966 3190 
Q 3341 2797 3341 1997 
z
" transform="scale(0.015625)"/>
       <path id="DejaVuSans-74" d="M 1172 4494 
L 1172 3500 
L 2356 3500 
L 2356 3053 
L 1172 3053 
L 1172 1153 
Q 1172 725 1289 603 
Q 1406 481 1766 481 
L 2356 481 
L 2356 0 
L 1766 0 
Q 1100 0 847 248 
Q 594 497 594 1153 
L 594 3053 
L 172 3053 
L 172 3500 
L 594 3500 
L 594 4494 
L 1172 4494 
z
" transform="scale(0.015625)"/>
       <path id="DejaVuSans-69" d="M 603 3500 
L 1178 3500 
L 1178 0 
L 603 0 
L 603 3500 
z
M 603 4863 
L 1178 4863 
L 1178 4134 
L 603 4134 
L 603 4863 
z
" transform="scale(0.015625)"/>
       <path id="DejaVuSans-76" d="M 191 3500 
L 800 3500 
L 1894 563 
L 2988 3500 
L 3597 3500 
L 2284 0 
L 1503 0 
L 191 3500 
z
" transform="scale(0.015625)"/>
       <path id="DejaVuSans-65" d="M 3597 1894 
L 3597 1613 
L 953 1613 
Q 991 1019 1311 708 
Q 1631 397 2203 397 
Q 2534 397 2845 478 
Q 3156 559 3463 722 
L 3463 178 
Q 3153 47 2828 -22 
Q 2503 -91 2169 -91 
Q 1331 -91 842 396 
Q 353 884 353 1716 
Q 353 2575 817 3079 
Q 1281 3584 2069 3584 
Q 2775 3584 3186 3129 
Q 3597 2675 3597 1894 
z
M 3022 2063 
Q 3016 2534 2758 2815 
Q 2500 3097 2075 3097 
Q 1594 3097 1305 2825 
Q 1016 2553 972 2059 
L 3022 2063 
z
" transform="scale(0.015625)"/>
       <path id="DejaVuSans-20" transform="scale(0.015625)"/>
       <path id="DejaVuSans-6e" d="M 3513 2113 
L 3513 0 
L 2938 0 
L 2938 2094 
Q 2938 2591 2744 2837 
Q 2550 3084 2163 3084 
Q 1697 3084 1428 2787 
Q 1159 2491 1159 1978 
L 1159 0 
L 581 0 
L 581 3500 
L 1159 3500 
L 1159 2956 
Q 1366 3272 1645 3428 
Q 1925 3584 2291 3584 
Q 2894 3584 3203 3211 
Q 3513 2838 3513 2113 
z
" transform="scale(0.015625)"/>
       <path id="DejaVuSans-62" d="M 3116 1747 
Q 3116 2381 2855 2742 
Q 2594 3103 2138 3103 
Q 1681 3103 1420 2742 
Q 1159 2381 1159 1747 
Q 1159 1113 1420 752 
Q 1681 391 2138 391 
Q 2594 391 2855 752 
Q 3116 1113 3116 1747 
z
M 1159 2969 
Q 1341 3281 1617 3432 
Q 1894 3584 2278 3584 
Q 2916 3584 3314 3078 
Q 3713 2572 3713 1747 
Q 3713 922 3314 415 
Q 2916 -91 2278 -91 
Q 1894 -91 1617 61 
Q 1341 213 1159 525 
L 1159 0 
L 581 0 
L 581 4863 
L 1159 4863 
L 1159 2969 
z
" transform="scale(0.015625)"/>
       <path id="DejaVuSans-72" d="M 2631 2963 
Q 2534 3019 2420 3045 
Q 2306 3072 2169 3072 
Q 1681 3072 1420 2755 
Q 1159 2438 1159 1844 
L 1159 0 
L 581 0 
L 581 3500 
L 1159 3500 
L 1159 2956 
Q 1341 3275 1631 3429 
Q 1922 3584 2338 3584 
Q 2397 3584 2469 3576 
Q 2541 3569 2628 3553 
L 2631 2963 
z
" transform="scale(0.015625)"/>
       <path id="DejaVuSans-6f" d="M 1959 3097 
Q 1497 3097 1228 2736 
Q 959 2375 959 1747 
Q 959 1119 1226 758 
Q 1494 397 1959 397 
Q 2419 397 2687 759 
Q 2956 1122 2956 1747 
Q 2956 2369 2687 2733 
Q 2419 3097 1959 3097 
z
M 1959 3584 
Q 2709 3584 3137 3096 
Q 3566 2609 3566 1747 
Q 3566 888 3137 398 
Q 2709 -91 1959 -91 
Q 1206 -91 779 398 
Q 353 888 353 1747 
Q 353 2609 779 3096 
Q 1206 3584 1959 3584 
z
" transform="scale(0.015625)"/>
       <path id="DejaVuSans-66" d="M 2375 4863 
L 2375 4384 
L 1825 4384 
Q 1516 4384 1395 4259 
Q 1275 4134 1275 3809 
L 1275 3500 
L 2222 3500 
L 2222 3053 
L 1275 3053 
L 1275 0 
L 697 0 
L 697 3053 
L 147 3053 
L 147 3500 
L 697 3500 
L 697 3744 
Q 697 4328 969 4595 
Q 1241 4863 1831 4863 
L 2375 4863 
z
" transform="scale(0.015625)"/>
       <path id="DejaVuSans-73" d="M 2834 3397 
L 2834 2853 
Q 2591 2978 2328 3040 
Q 2066 3103 1784 3103 
Q 1356 3103 1142 2972 
Q 928 2841 928 2578 
Q 928 2378 1081 2264 
Q 1234 2150 1697 2047 
L 1894 2003 
Q 2506 1872 2764 1633 
Q 3022 1394 3022 966 
Q 3022 478 2636 193 
Q 2250 -91 1575 -91 
Q 1294 -91 989 -36 
Q 684 19 347 128 
L 347 722 
Q 666 556 975 473 
Q 1284 391 1588 391 
Q 1994 391 2212 530 
Q 2431 669 2431 922 
Q 2431 1156 2273 1281 
Q 2116 1406 1581 1522 
L 1381 1569 
Q 847 1681 609 1914 
Q 372 2147 372 2553 
Q 372 3047 722 3315 
Q 1072 3584 1716 3584 
Q 2034 3584 2315 3537 
Q 2597 3491 2834 3397 
z
" transform="scale(0.015625)"/>
      </defs>
      <use xlink:href="#DejaVuSans-63"/>
      <use xlink:href="#DejaVuSans-75" x="54.980469"/>
      <use xlink:href="#DejaVuSans-6d" x="118.359375"/>
      <use xlink:href="#DejaVuSans-75" x="215.771484"/>
      <use xlink:href="#DejaVuSans-6c" x="279.150391"/>
      <use xlink:href="#DejaVuSans-61" x="306.933594"/>
      <use xlink:href="#DejaVuSans-74" x="368.212891"/>
      <use xlink:href="#DejaVuSans-69" x="407.421875"/>
      <use xlink:href="#DejaVuSans-76" x="435.205078"/>
      <use xlink:href="#DejaVuSans-65" x="494.384766"/>
      <use xlink:href="#DejaVuSans-20" x="555.908203"/>
      <use xlink:href="#DejaVuSans-6e" x="587.695312"/>
      <use xlink:href="#DejaVuSans-75" x="651.074219"/>
      <use xlink:href="#DejaVuSans-6d" x="714.453125"/>
      <use xlink:href="#DejaVuSans-62" x="811.865234"/>
      <use xlink:href="#DejaVuSans-65" x="875.341797"/>
      <use xlink:href="#DejaVuSans-72" x="936.865234"/>
      <use xlink:href="#DejaVuSans-20" x="977.978516"/>
      <use xlink:href="#DejaVuSans-6f" x="1009.765625"/>
      <use xlink:href="#DejaVuSans-66" x="1070.947266"/>
      <use xlink:href="#DejaVuSans-20" x="1106.152344"/>
      <use xlink:href="#DejaVuSans-66" x="1137.939453"/>
      <use xlink:href="#DejaVuSans-69" x="1173.144531"/>
      <use xlink:href="#DejaVuSans-6c" x="1200.927734"/>
      <use xlink:href="#DejaVuSans-65" x="1228.710938"/>
      <use xlink:href="#DejaVuSans-73" x="1290.234375"/>
     </g>
    </g>
   </g>
   <g id="line2d_40">
    <path d="M -1 211.464 
L 8.625 211.464 
L 20.25 211.464 
L 31.875 211.464 
L 43.5 211.464 
L 55.125 211.464 
L 66.75 208.95688 
L 78.375 208.82136 
L 90 208.82136 
L 101.625 208.82136 
L 113.25 208.82136 
L 124.875 208.7536 
L 136.5 208.7536 
L 148.125 208.48256 
L 159.75 208.4148 
L 171.375 208.4148 
L 183 208.27928 
L 194.625 208.27928 
L 206.25 208.27928 
L 217.875 208.27928 
L 229.5 208.27928 
L 241.125 208.27928 
L 252.75 208.00824 
L 264.375 208.00824 
L 276 208.00824 
L 287.625 207.46616 
L 299.25 207.12736 
L 310.875 206.24648 
L 322.5 205.43336 
L 334.125 205.16232 
L 345.75 204.95904 
L 357.375 204.82352 
L 369 204.21368 
L 380.625 203.60384 
L 392.25 203.26504 
L 403.875 203.12952 
L 415.5 202.85848 
L 427.125 201.90984 
L 438.75 201.16448 
L 450.375 200.82568 
L 462 200.2836 
L 473.625 199.606 
L 485.25 197.50544 
L 496.875 196.76008 
L 508.5 196.62456 
L 520.125 195.60816 
L 531.75 194.93056 
L 543.375 194.79504 
L 555 193.64312 
L 566.625 193.57536 
L 578.25 191.40704 
L 589.875 189.1032 
L 601.5 188.49336 
L 613.125 188.29008 
L 624.75 187.95128 
L 636.375 187.68024 
L 648 187.61248 
L 659.625 187.61248 
" clip-path="url(#p919031e288)" style="fill: none; stroke: #2d76d6; stroke-width: 1.5; stroke-linecap: square"/>
   </g>
   <g id="line2d_41">
    <path d="M -1 201.954285 
L 8.625 201.84208 
L 20.25 201.3 
L 31.875 200.75792 
L 43.5 200.41912 
L 55.125 200.2836 
L 66.75 197.64096 
L 78.375 196.218 
L 90 195.06608 
L 101.625 194.04968 
L 113.25 193.5076 
L 124.875 192.96552 
L 136.5 192.4912 
L 148.125 190.86496 
L 159.75 188.49336 
L 171.375 187.34144 
L 183 186.52832 
L 194.625 185.57968 
L 206.25 184.90208 
L 217.875 184.08896 
L 229.5 181.85288 
L 241.125 181.3108 
L 252.75 179.34576 
L 264.375 178.53264 
L 276 177.17744 
L 287.625 176.16104 
L 299.25 174.39928 
L 310.875 172.56976 
L 322.5 168.97848 
L 334.125 167.62328 
L 345.75 165.99704 
L 357.375 164.50632 
L 369 163.0156 
L 380.625 160.44072 
L 392.25 157.79808 
L 403.875 156.2396 
L 415.5 153.66472 
L 427.125 152.24176 
L 438.75 148.85376 
L 450.375 144.44936 
L 462 141.3324 
L 473.625 136.5892 
L 485.25 130.42304 
L 496.875 121.95304 
L 508.5 117.54864 
L 520.125 106.70704 
L 531.75 100.3376 
L 543.375 97.89824 
L 555 94.03592 
L 566.625 87.73424 
L 578.25 82.85552 
L 589.875 76.6216 
L 601.5 56.49688 
L 613.125 52.43128 
L 624.75 46.33288 
L 636.375 42.80936 
L 648 39.6924 
L 659.625 39.48912 
" clip-path="url(#p919031e288)" style="fill: none; stroke: #f2b263; stroke-width: 1.5; stroke-linecap: square"/>
   </g>
   <g id="line2d_42">
    <path d="M 252.75 211.464 
L 252.75 28.512 
" clip-path="url(#p919031e288)" style="fill: none; stroke-dasharray: 5.55,2.4; stroke-dashoffset: 0; stroke: #808080; stroke-width: 1.5"/>
   </g>
   <g id="line2d_43">
    <path d="M 392.25 211.464 
L 392.25 28.512 
" clip-path="url(#p919031e288)" style="fill: none; stroke-dasharray: 5.55,2.4; stroke-dashoffset: 0; stroke: #808080; stroke-width: 1.5"/>
   </g>
   <g id="line2d_44">
    <path d="M 531.75 211.464 
L 531.75 28.512 
" clip-path="url(#p919031e288)" style="fill: none; stroke-dasharray: 5.55,2.4; stroke-dashoffset: 0; stroke: #808080; stroke-width: 1.5"/>
   </g>
   <g id="patch_3">
    <path d="M 90 211.464 
L 90 28.512 
" style="fill: none; stroke: #000000; stroke-width: 0.8; stroke-linejoin: miter; stroke-linecap: square"/>
   </g>
   <g id="patch_4">
    <path d="M 648 211.464 
L 648 28.512 
" style="fill: none; stroke: #000000; stroke-width: 0.8; stroke-linejoin: miter; stroke-linecap: square"/>
   </g>
   <g id="patch_5">
    <path d="M 90 211.464 
L 648 211.464 
" style="fill: none; stroke: #000000; stroke-width: 0.8; stroke-linejoin: miter; stroke-linecap: square"/>
   </g>
   <g id="patch_6">
    <path d="M 90 28.512 
L 648 28.512 
" style="fill: none; stroke: #000000; stroke-width: 0.8; stroke-linejoin: miter; stroke-linecap: square"/>
   </g>
   <g id="text_12">
    <!--    year 1 -->
    <g transform="translate(252.75 53.5832) scale(0.1 -0.1)">
     <defs>
      <path id="DejaVuSans-79" d="M 2059 -325 
Q 1816 -950 1584 -1140 
Q 1353 -1331 966 -1331 
L 506 -1331 
L 506 -850 
L 844 -850 
Q 1081 -850 1212 -737 
Q 1344 -625 1503 -206 
L 1606 56 
L 191 3500 
L 800 3500 
L 1894 763 
L 2988 3500 
L 3597 3500 
L 2059 -325 
z
" transform="scale(0.015625)"/>
     </defs>
     <use xlink:href="#DejaVuSans-20"/>
     <use xlink:href="#DejaVuSans-20" x="31.787109"/>
     <use xlink:href="#DejaVuSans-20" x="63.574219"/>
     <use xlink:href="#DejaVuSans-79" x="95.361328"/>
     <use xlink:href="#DejaVuSans-65" x="154.541016"/>
     <use xlink:href="#DejaVuSans-61" x="216.064453"/>
     <use xlink:href="#DejaVuSans-72" x="277.34375"/>
     <use xlink:href="#DejaVuSans-20" x="318.457031"/>
     <use xlink:href="#DejaVuSans-31" x="350.244141"/>
    </g>
   </g>
   <g id="text_13">
    <!--    year 2 -->
    <g transform="translate(392.25 53.5832) scale(0.1 -0.1)">
     <use xlink:href="#DejaVuSans-20"/>
     <use xlink:href="#DejaVuSans-20" x="31.787109"/>
     <use xlink:href="#DejaVuSans-20" x="63.574219"/>
     <use xlink:href="#DejaVuSans-79" x="95.361328"/>
     <use xlink:href="#DejaVuSans-65" x="154.541016"/>
     <use xlink:href="#DejaVuSans-61" x="216.064453"/>
     <use xlink:href="#DejaVuSans-72" x="277.34375"/>
     <use xlink:href="#DejaVuSans-20" x="318.457031"/>
     <use xlink:href="#DejaVuSans-32" x="350.244141"/>
    </g>
   </g>
   <g id="text_14">
    <!--    year 3 -->
    <g transform="translate(531.75 53.5832) scale(0.1 -0.1)">
     <use xlink:href="#DejaVuSans-20"/>
     <use xlink:href="#DejaVuSans-20" x="31.787109"/>
     <use xlink:href="#DejaVuSans-20" x="63.574219"/>
     <use xlink:href="#DejaVuSans-79" x="95.361328"/>
     <use xlink:href="#DejaVuSans-65" x="154.541016"/>
     <use xlink:href="#DejaVuSans-61" x="216.064453"/>
     <use xlink:href="#DejaVuSans-72" x="277.34375"/>
     <use xlink:href="#DejaVuSans-20" x="318.457031"/>
     <use xlink:href="#DejaVuSans-33" x="350.244141"/>
    </g>
   </g>
   <g id="text_15">
    <!-- appearances of "import awkward" in GitHub repos -->
    <g transform="translate(218.015625 22.512) scale(0.12 -0.12)">
     <defs>
      <path id="DejaVuSans-70" d="M 1159 525 
L 1159 -1331 
L 581 -1331 
L 581 3500 
L 1159 3500 
L 1159 2969 
Q 1341 3281 1617 3432 
Q 1894 3584 2278 3584 
Q 2916 3584 3314 3078 
Q 3713 2572 3713 1747 
Q 3713 922 3314 415 
Q 2916 -91 2278 -91 
Q 1894 -91 1617 61 
Q 1341 213 1159 525 
z
M 3116 1747 
Q 3116 2381 2855 2742 
Q 2594 3103 2138 3103 
Q 1681 3103 1420 2742 
Q 1159 2381 1159 1747 
Q 1159 1113 1420 752 
Q 1681 391 2138 391 
Q 2594 391 2855 752 
Q 3116 1113 3116 1747 
z
" transform="scale(0.015625)"/>
      <path id="DejaVuSans-22" d="M 1147 4666 
L 1147 2931 
L 616 2931 
L 616 4666 
L 1147 4666 
z
M 2328 4666 
L 2328 2931 
L 1797 2931 
L 1797 4666 
L 2328 4666 
z
" transform="scale(0.015625)"/>
      <path id="DejaVuSans-77" d="M 269 3500 
L 844 3500 
L 1563 769 
L 2278 3500 
L 2956 3500 
L 3675 769 
L 4391 3500 
L 4966 3500 
L 4050 0 
L 3372 0 
L 2619 2869 
L 1863 0 
L 1184 0 
L 269 3500 
z
" transform="scale(0.015625)"/>
      <path id="DejaVuSans-6b" d="M 581 4863 
L 1159 4863 
L 1159 1991 
L 2875 3500 
L 3609 3500 
L 1753 1863 
L 3688 0 
L 2938 0 
L 1159 1709 
L 1159 0 
L 581 0 
L 581 4863 
z
" transform="scale(0.015625)"/>
      <path id="DejaVuSans-64" d="M 2906 2969 
L 2906 4863 
L 3481 4863 
L 3481 0 
L 2906 0 
L 2906 525 
Q 2725 213 2448 61 
Q 2172 -91 1784 -91 
Q 1150 -91 751 415 
Q 353 922 353 1747 
Q 353 2572 751 3078 
Q 1150 3584 1784 3584 
Q 2172 3584 2448 3432 
Q 2725 3281 2906 2969 
z
M 947 1747 
Q 947 1113 1208 752 
Q 1469 391 1925 391 
Q 2381 391 2643 752 
Q 2906 1113 2906 1747 
Q 2906 2381 2643 2742 
Q 2381 3103 1925 3103 
Q 1469 3103 1208 2742 
Q 947 2381 947 1747 
z
" transform="scale(0.015625)"/>
      <path id="DejaVuSans-47" d="M 3809 666 
L 3809 1919 
L 2778 1919 
L 2778 2438 
L 4434 2438 
L 4434 434 
Q 4069 175 3628 42 
Q 3188 -91 2688 -91 
Q 1594 -91 976 548 
Q 359 1188 359 2328 
Q 359 3472 976 4111 
Q 1594 4750 2688 4750 
Q 3144 4750 3555 4637 
Q 3966 4525 4313 4306 
L 4313 3634 
Q 3963 3931 3569 4081 
Q 3175 4231 2741 4231 
Q 1884 4231 1454 3753 
Q 1025 3275 1025 2328 
Q 1025 1384 1454 906 
Q 1884 428 2741 428 
Q 3075 428 3337 486 
Q 3600 544 3809 666 
z
" transform="scale(0.015625)"/>
      <path id="DejaVuSans-48" d="M 628 4666 
L 1259 4666 
L 1259 2753 
L 3553 2753 
L 3553 4666 
L 4184 4666 
L 4184 0 
L 3553 0 
L 3553 2222 
L 1259 2222 
L 1259 0 
L 628 0 
L 628 4666 
z
" transform="scale(0.015625)"/>
     </defs>
     <use xlink:href="#DejaVuSans-61"/>
     <use xlink:href="#DejaVuSans-70" x="61.279297"/>
     <use xlink:href="#DejaVuSans-70" x="124.755859"/>
     <use xlink:href="#DejaVuSans-65" x="188.232422"/>
     <use xlink:href="#DejaVuSans-61" x="249.755859"/>
     <use xlink:href="#DejaVuSans-72" x="311.035156"/>
     <use xlink:href="#DejaVuSans-61" x="352.148438"/>
     <use xlink:href="#DejaVuSans-6e" x="413.427734"/>
     <use xlink:href="#DejaVuSans-63" x="476.806641"/>
     <use xlink:href="#DejaVuSans-65" x="531.787109"/>
     <use xlink:href="#DejaVuSans-73" x="593.310547"/>
     <use xlink:href="#DejaVuSans-20" x="645.410156"/>
     <use xlink:href="#DejaVuSans-6f" x="677.197266"/>
     <use xlink:href="#DejaVuSans-66" x="738.378906"/>
     <use xlink:href="#DejaVuSans-20" x="773.583984"/>
     <use xlink:href="#DejaVuSans-22" x="805.371094"/>
     <use xlink:href="#DejaVuSans-69" x="851.367188"/>
     <use xlink:href="#DejaVuSans-6d" x="879.150391"/>
     <use xlink:href="#DejaVuSans-70" x="976.5625"/>
     <use xlink:href="#DejaVuSans-6f" x="1040.039062"/>
     <use xlink:href="#DejaVuSans-72" x="1101.220703"/>
     <use xlink:href="#DejaVuSans-74" x="1142.333984"/>
     <use xlink:href="#DejaVuSans-20" x="1181.542969"/>
     <use xlink:href="#DejaVuSans-61" x="1213.330078"/>
     <use xlink:href="#DejaVuSans-77" x="1274.609375"/>
     <use xlink:href="#DejaVuSans-6b" x="1356.396484"/>
     <use xlink:href="#DejaVuSans-77" x="1414.306641"/>
     <use xlink:href="#DejaVuSans-61" x="1496.09375"/>
     <use xlink:href="#DejaVuSans-72" x="1557.373047"/>
     <use xlink:href="#DejaVuSans-64" x="1596.736328"/>
     <use xlink:href="#DejaVuSans-22" x="1660.212891"/>
     <use xlink:href="#DejaVuSans-20" x="1706.208984"/>
     <use xlink:href="#DejaVuSans-69" x="1737.996094"/>
     <use xlink:href="#DejaVuSans-6e" x="1765.779297"/>
     <use xlink:href="#DejaVuSans-20" x="1829.158203"/>
     <use xlink:href="#DejaVuSans-47" x="1860.945312"/>
     <use xlink:href="#DejaVuSans-69" x="1938.435547"/>
     <use xlink:href="#DejaVuSans-74" x="1966.21875"/>
     <use xlink:href="#DejaVuSans-48" x="2005.427734"/>
     <use xlink:href="#DejaVuSans-75" x="2080.623047"/>
     <use xlink:href="#DejaVuSans-62" x="2144.001953"/>
     <use xlink:href="#DejaVuSans-20" x="2207.478516"/>
     <use xlink:href="#DejaVuSans-72" x="2239.265625"/>
     <use xlink:href="#DejaVuSans-65" x="2278.128906"/>
     <use xlink:href="#DejaVuSans-70" x="2339.652344"/>
     <use xlink:href="#DejaVuSans-6f" x="2403.128906"/>
     <use xlink:href="#DejaVuSans-73" x="2464.310547"/>
    </g>
   </g>
   <g id="legend_1">
    <g id="patch_7">
     <path d="M 97 65.86825 
L 168.423438 65.86825 
Q 170.423438 65.86825 170.423438 63.86825 
L 170.423438 35.512 
Q 170.423438 33.512 168.423438 33.512 
L 97 33.512 
Q 95 33.512 95 35.512 
L 95 63.86825 
Q 95 65.86825 97 65.86825 
z
" style="fill: #ffffff; opacity: 0.8; stroke: #cccccc; stroke-linejoin: miter"/>
    </g>
    <g id="patch_8">
     <path d="M 99 45.110437 
L 119 45.110437 
L 119 38.110437 
L 99 38.110437 
z
" style="fill: #f2b263; stroke: #f2b263; stroke-linejoin: miter"/>
    </g>
    <g id="text_16">
     <!-- HEP -->
     <g transform="translate(127 45.110437) scale(0.1 -0.1)">
      <defs>
       <path id="DejaVuSans-45" d="M 628 4666 
L 3578 4666 
L 3578 4134 
L 1259 4134 
L 1259 2753 
L 3481 2753 
L 3481 2222 
L 1259 2222 
L 1259 531 
L 3634 531 
L 3634 0 
L 628 0 
L 628 4666 
z
" transform="scale(0.015625)"/>
       <path id="DejaVuSans-50" d="M 1259 4147 
L 1259 2394 
L 2053 2394 
Q 2494 2394 2734 2622 
Q 2975 2850 2975 3272 
Q 2975 3691 2734 3919 
Q 2494 4147 2053 4147 
L 1259 4147 
z
M 628 4666 
L 2053 4666 
Q 2838 4666 3239 4311 
Q 3641 3956 3641 3272 
Q 3641 2581 3239 2228 
Q 2838 1875 2053 1875 
L 1259 1875 
L 1259 0 
L 628 0 
L 628 4666 
z
" transform="scale(0.015625)"/>
      </defs>
      <use xlink:href="#DejaVuSans-48"/>
      <use xlink:href="#DejaVuSans-45" x="75.195312"/>
      <use xlink:href="#DejaVuSans-50" x="138.378906"/>
     </g>
    </g>
    <g id="patch_9">
     <path d="M 99 59.788562 
L 119 59.788562 
L 119 52.788562 
L 99 52.788562 
z
" style="fill: #2d76d6; stroke: #2d76d6; stroke-linejoin: miter"/>
    </g>
    <g id="text_17">
     <!-- not HEP -->
     <g transform="translate(127 59.788562) scale(0.1 -0.1)">
      <use xlink:href="#DejaVuSans-6e"/>
      <use xlink:href="#DejaVuSans-6f" x="63.378906"/>
      <use xlink:href="#DejaVuSans-74" x="124.560547"/>
      <use xlink:href="#DejaVuSans-20" x="163.769531"/>
      <use xlink:href="#DejaVuSans-48" x="195.556641"/>
      <use xlink:href="#DejaVuSans-45" x="270.751953"/>
      <use xlink:href="#DejaVuSans-50" x="333.935547"/>
     </g>
    </g>
   </g>
  </g>
 </g>
 <defs>
  <clipPath id="p919031e288">
   <rect x="90" y="28.512" width="558" height="182.952"/>
  </clipPath>
 </defs>
</svg>
